<svg width="84" height="84" viewBox="0 0 84 84" fill="none" xmlns="http://www.w3.org/2000/svg">
<g filter="url(#filter0_d_1_5)">
<rect x="2" y="1" width="80" height="80" rx="40" fill="#2463EB" fill-opacity="0.1" shape-rendering="crispEdges"/>
<rect x="4" y="3" width="76" height="76" rx="38" stroke="white" stroke-width="4" shape-rendering="crispEdges"/>
<path d="M37.5 44.375C36.975 44.375 36.5312 44.1937 36.1687 43.8312C35.8062 43.4688 35.625 43.025 35.625 42.5C35.625 41.975 35.8062 41.5312 36.1687 41.1687C36.5312 40.8062 36.975 40.625 37.5 40.625C38.025 40.625 38.4688 40.8062 38.8313 41.1687C39.1938 41.5312 39.375 41.975 39.375 42.5C39.375 43.025 39.1938 43.4688 38.8313 43.8312C38.4688 44.1937 38.025 44.375 37.5 44.375ZM46.5 44.375C45.975 44.375 45.5312 44.1937 45.1688 43.8312C44.8063 43.4688 44.625 43.025 44.625 42.5C44.625 41.975 44.8063 41.5312 45.1688 41.1687C45.5312 40.8062 45.975 40.625 46.5 40.625C47.025 40.625 47.4688 40.8062 47.8312 41.1687C48.1937 41.5312 48.375 41.975 48.375 42.5C48.375 43.025 48.1937 43.4688 47.8312 43.8312C47.4688 44.1937 47.025 44.375 46.5 44.375ZM42 53C45.35 53 48.1875 51.8375 50.5125 49.5125C52.8375 47.1875 54 44.35 54 41C54 40.4 53.9625 39.8188 53.8875 39.2563C53.8125 38.6938 53.675 38.15 53.475 37.625C52.95 37.75 52.425 37.8438 51.9 37.9062C51.375 37.9688 50.825 38 50.25 38C47.975 38 45.825 37.5125 43.8 36.5375C41.775 35.5625 40.05 34.2 38.625 32.45C37.825 34.4 36.6813 36.0938 35.1938 37.5312C33.7063 38.9688 31.975 40.05 30 40.775C30 40.825 30 40.8625 30 40.8875C30 40.9125 30 40.95 30 41C30 44.35 31.1625 47.1875 33.4875 49.5125C35.8125 51.8375 38.65 53 42 53ZM42 56C39.925 56 37.975 55.6063 36.15 54.8188C34.325 54.0312 32.7375 52.9625 31.3875 51.6125C30.0375 50.2625 28.9688 48.675 28.1812 46.85C27.3937 45.025 27 43.075 27 41C27 38.925 27.3937 36.975 28.1812 35.15C28.9688 33.325 30.0375 31.7375 31.3875 30.3875C32.7375 29.0375 34.325 27.9688 36.15 27.1812C37.975 26.3937 39.925 26 42 26C44.075 26 46.025 26.3937 47.85 27.1812C49.675 27.9688 51.2625 29.0375 52.6125 30.3875C53.9625 31.7375 55.0312 33.325 55.8188 35.15C56.6063 36.975 57 38.925 57 41C57 43.075 56.6063 45.025 55.8188 46.85C55.0312 48.675 53.9625 50.2625 52.6125 51.6125C51.2625 52.9625 49.675 54.0312 47.85 54.8188C46.025 55.6063 44.075 56 42 56ZM39.975 29.1875C41.025 30.9375 42.45 32.3438 44.25 33.4062C46.05 34.4688 48.05 35 50.25 35C50.6 35 50.9375 34.9813 51.2625 34.9438C51.5875 34.9062 51.925 34.8625 52.275 34.8125C51.225 33.0625 49.8 31.6562 48 30.5938C46.2 29.5312 44.2 29 42 29C41.65 29 41.3125 29.0188 40.9875 29.0563C40.6625 29.0938 40.325 29.1375 39.975 29.1875ZM30.6375 37.2125C31.9125 36.4875 33.025 35.55 33.975 34.4C34.925 33.25 35.6375 31.9625 36.1125 30.5375C34.8375 31.2625 33.725 32.2 32.775 33.35C31.825 34.5 31.1125 35.7875 30.6375 37.2125Z" fill="#2463EB"/>
</g>
<defs>
<filter id="filter0_d_1_5" x="0" y="0" width="84" height="84" filterUnits="userSpaceOnUse" color-interpolation-filters="sRGB">
<feFlood flood-opacity="0" result="BackgroundImageFix"/>
<feColorMatrix in="SourceAlpha" type="matrix" values="0 0 0 0 0 0 0 0 0 0 0 0 0 0 0 0 0 0 127 0" result="hardAlpha"/>
<feOffset dy="1"/>
<feGaussianBlur stdDeviation="1"/>
<feComposite in2="hardAlpha" operator="out"/>
<feColorMatrix type="matrix" values="0 0 0 0 0 0 0 0 0 0 0 0 0 0 0 0 0 0 0.05 0"/>
<feBlend mode="normal" in2="BackgroundImageFix" result="effect1_dropShadow_1_5"/>
<feBlend mode="normal" in="SourceGraphic" in2="effect1_dropShadow_1_5" result="shape"/>
</filter>
</defs>
</svg>
